<?xml version="1.0" encoding="UTF-8"?>
<svg width="215px" height="194px" viewBox="0 0 215 194" version="1.1" xmlns="http://www.w3.org/2000/svg" xmlns:xlink="http://www.w3.org/1999/xlink">
    <!-- Generator: Sketch 53.2 (72643) - https://sketchapp.com -->
    <title>Group 3</title>
    <desc>Created with Sketch.</desc>
    <g id="Page-1" stroke="none" stroke-width="1" fill="none" fill-rule="evenodd">
        <g id="Group-2" transform="translate(-707.000000, 0.000000)" fill-rule="nonzero">
            <g id="Group-3" transform="translate(707.000000, 0.000000)">
                <path d="M193.1496,52.4910988 C185.3186,34.7175046 176.021144,26.3559519 163.192311,25.6400946 C160.9852,22.8931509 155.584144,17.9816917 145.149178,17.9816917 C140.055844,17.9816917 136.411989,19.7946322 134.181533,21.1755168 C131.874678,18.3671534 127.428622,14 119.5,14 C112.008556,14 107.337544,18.5196437 104.933067,21.2454082 C102.713222,19.856052 99.0311667,17.9816917 93.8508222,17.9816917 C83.4158556,17.9816917 78.0148,22.8931509 75.8076889,25.6400946 C62.9788556,26.3559519 53.6814,34.7175046 45.8504,52.4910988 C38.0448667,70.2075092 24,129.310217 24,138.652367 C24,147.088047 26.6931,152.539576 32.4782778,155.80541 C33.7197778,156.506442 35.3920889,157.417148 36.6930111,158.120298 C36.1794333,165.475838 37.4421556,171.132805 43.7685,175.898128 C50.7315111,181.144219 60.1096111,183.908106 68.8552889,183.296027 C78.8870333,182.594995 85.5890111,185.585499 88.6938222,187.432327 C94.0312111,190.60709 104.928822,194 119.5,194 C134.071178,194 144.968789,190.60709 150.306178,187.432327 C153.410989,185.585499 160.1257,182.592877 170.144711,183.296027 C178.894633,183.912342 188.268489,181.144219 195.2315,175.898128 C201.557844,171.132805 202.820567,165.475838 202.306989,158.120298 C203.607911,157.417148 205.280222,156.506442 206.521722,155.80541 C212.3069,152.537458 215,147.088047 215,138.652367 C215,129.310217 200.955133,70.2075092 193.1496,52.4910988 Z M102.757348,27.6424757 C103.80654,28.3243872 104.713433,28.913871 106.008995,28.913871 C107.833401,28.913871 108.831621,27.7739285 109.887185,26.5662057 C111.709467,24.4834999 114.759347,21 119.998938,21 C125.788612,21 128.524159,24.4465288 130.15954,26.5066411 C131.055814,27.6363138 132.071025,28.915925 133.988881,28.915925 C135.286567,28.915925 136.191336,28.3264412 137.240528,27.6445296 C138.839804,26.6031768 141.518006,24.8614268 145.668051,24.8614268 C149.282881,24.8614268 151.997189,25.5926332 154,26.5251267 C148.847487,27.7924141 144.652841,30.1359715 142.486492,32.5637409 C139.409001,33.3011091 136.297529,34.4451595 133.192429,36 C128.133367,33.640011 123.248462,33.1326852 119.998938,33.1326852 C116.749414,33.1326852 111.864509,33.640011 106.803323,36 C103.698223,34.4451595 100.586751,33.3011091 97.5092607,32.5637409 C95.3450354,30.1380255 91.1525127,27.7924141 86,26.5271806 C88.002811,25.5946871 90.717119,24.8634808 94.3298248,24.8634808 C98.4798701,24.8614268 101.158072,26.6031768 102.757348,27.6424757 Z M191.548798,170.250243 C187.160371,173.557736 179.470519,176.88009 171.055289,176.287798 C162.206109,175.665786 153.720682,177.47875 147.145486,181.391273 C142.793221,183.9791 133.02296,187 119.804498,187 C106.586036,187 96.8157752,183.9791 92.4656376,181.391273 C85.8904416,177.480873 77.3986325,175.670031 68.5558343,176.287798 C60.1384774,176.882213 52.4507523,173.555613 48.0623249,170.250243 C44.0270138,167.210237 43.0506259,163.962185 43.884491,156.353677 C43.8866182,156.338816 43.8887454,156.317587 43.8908726,156.300604 C43.8908726,156.296358 43.8908726,156.294235 43.8929998,156.289989 C44.1099749,154.307192 44.7162288,148.936231 45.7649417,140.650514 C46.0053161,138.759002 44.6630486,137.033076 42.7677075,136.79531 C40.8744935,136.557545 39.1429472,137.894978 38.9047001,139.78649 C38.3452447,144.208511 37.9112946,147.800474 37.5943408,150.507184 C37.019995,150.19087 36.464794,149.883048 35.9861725,149.613439 C33.3952347,148.150754 31,145.78371 31,138.427828 C31,130.931834 44.3333316,72.9615411 52.3167383,54.8403846 C59.2961035,38.999233 66.8455601,32.1464808 77.5007384,32 C77.6177348,32.0127375 77.7347312,32.0212291 77.8496003,32.0212291 C77.9453246,32.0212291 78.0410489,32.0106145 78.1367732,32.0021229 C79.3024825,32.0148604 80.4043756,32.1040226 81.4424524,32.2483804 C77.2603641,33.3246956 73.3143956,35.311739 69.736434,38.2137565 C53.7674933,51.1719968 46.7051671,86.3401175 44.409911,100.856573 C43.637735,105.747757 42.8549229,110.927657 42.0870013,116.254037 C41.8147189,118.141304 43.1272054,119.890581 45.0161649,120.160191 C45.1842143,120.183543 45.3501364,120.19628 45.5118041,120.19628 C47.2029334,120.19628 48.6813421,118.956501 48.9302253,117.236944 C49.6938925,111.940285 50.4703229,106.792229 51.2382445,101.932889 C55.7585588,73.3309274 64.3035481,51.5137852 74.0972077,43.5677345 C81.3509826,37.683029 90.3533213,36.627943 99.8534264,40.3982305 C93.5590218,46.0366784 88.0389204,55.8063085 86.3350278,72.6006465 C85.4735091,81.1050224 84.6141176,90.4521934 83.7823798,100.383165 C83.6228393,102.283169 85.0374318,103.949653 86.9391545,104.108871 C87.0370061,104.117363 87.1348576,104.121608 87.2305819,104.121608 C89.0089267,104.121608 90.5213706,102.758701 90.6724023,100.958473 C91.4998857,91.0678372 92.3550228,81.7610015 93.2144143,73.2948379 C96.1669772,44.1706408 111.140385,39.820799 119.804498,39.820799 C128.468611,39.820799 143.442019,44.1685179 146.396709,73.292715 C150.034232,109.165642 152.355015,147.806843 152.378414,148.193212 C152.486902,150.025283 154.009982,151.439141 155.826616,151.439141 C155.896814,151.439141 155.964885,151.437018 156.035083,151.432772 C157.94106,151.320258 159.393942,149.685618 159.2812,147.783491 C159.257801,147.394998 156.930637,108.617931 153.276095,72.5985236 C151.572203,55.8041856 146.052101,46.0345555 139.757697,40.3961075 C149.259929,36.6258201 158.260141,37.6809061 165.513916,43.5656116 C175.305448,51.5095394 183.850437,73.3288045 188.372879,101.930766 C191.952968,124.58858 194.748117,147.437456 195.724505,156.353677 C196.560497,163.962185 195.584109,167.208114 191.548798,170.250243 Z M203.055455,150.110112 C202.581032,150.378558 202.0307,150.685052 201.461392,151 C200.183612,140.088831 197.725045,120.754375 194.705605,101.565768 C192.430481,87.1098433 185.430102,52.0934886 169.601231,39.1932826 C166.056762,36.3037886 162.143297,34.3253202 158,33.2536498 C159.113313,33.0972324 160.2941,33 161.555012,33 C161.557121,33 161.559229,33 161.563446,33 C161.565555,33 161.567663,33 161.57188,33 C172.310716,33.0042275 179.878295,39.8083833 186.87024,55.7481594 C194.783621,73.7890013 208,131.51124 208,138.974886 C207.997891,146.29691 205.623666,148.653739 203.055455,150.110112 Z" id="Shape-Copy-2" fill="#F75B57"></path>
                <path d="M169.1496,38.4910988 C161.3186,20.7175046 152.021144,12.3559519 139.192311,11.6400946 C136.9852,8.89315088 131.584144,3.98169175 121.149178,3.98169175 C116.055844,3.98169175 112.411989,5.79463225 110.181533,7.17551683 C107.874678,4.3671534 103.428622,0 95.5,0 C88.0085556,0 83.3375444,4.51964372 80.9330667,7.24540823 C78.7132222,5.85605196 75.0311667,3.98169175 69.8508222,3.98169175 C59.4158556,3.98169175 54.0148,8.89315088 51.8076889,11.6400946 C38.9788556,12.3559519 29.6814,20.7175046 21.8504,38.4910988 C14.0448667,56.2075092 0,115.310217 0,124.652367 C0,133.088047 2.6931,138.539576 8.47827778,141.80541 C9.71977778,142.506442 11.3920889,143.417148 12.6930111,144.120298 C12.1794333,151.475838 13.4421556,157.132805 19.7685,161.898128 C26.7315111,167.144219 36.1096111,169.908106 44.8552889,169.296027 C54.8870333,168.594995 61.5890111,171.585499 64.6938222,173.432327 C70.0312111,176.60709 80.9288222,180 95.5,180 C110.071178,180 120.968789,176.60709 126.306178,173.432327 C129.410989,171.585499 136.1257,168.592877 146.144711,169.296027 C154.894633,169.912342 164.268489,167.144219 171.2315,161.898128 C177.557844,157.132805 178.820567,151.475838 178.306989,144.120298 C179.607911,143.417148 181.280222,142.506442 182.521722,141.80541 C188.3069,138.537458 191,133.088047 191,124.652367 C191,115.310217 176.955133,56.2075092 169.1496,38.4910988 Z M78.7573477,13.6424757 C79.8065403,14.3243872 80.7134335,14.913871 82.0089952,14.913871 C83.833401,14.913871 84.8316207,13.7739285 85.8871849,12.5662057 C87.7094668,10.4834999 90.7593466,7 95.9989381,7 C101.788612,7 104.524159,10.4465288 106.15954,12.5066411 C107.055814,13.6363138 108.071025,14.915925 109.988881,14.915925 C111.286567,14.915925 112.191336,14.3264412 113.240528,13.6445296 C114.839804,12.6031768 117.518006,10.8614268 121.668051,10.8614268 C125.282881,10.8614268 127.997189,11.5926332 130,12.5251267 C124.847487,13.7924141 120.652841,16.1359715 118.486492,18.5637409 C115.409001,19.3011091 112.297529,20.4451595 109.192429,22 C104.133367,19.640011 99.2484618,19.1326852 95.9989381,19.1326852 C92.7494144,19.1326852 87.8645095,19.640011 82.8033232,22 C79.6982228,20.4451595 76.5867508,19.3011091 73.5092607,18.5637409 C71.3450354,16.1380255 67.1525127,13.7924141 62,12.5271806 C64.002811,11.5946871 66.717119,10.8634808 70.3298248,10.8634808 C74.4798701,10.8614268 77.1580723,12.6031768 78.7573477,13.6424757 Z M167.548798,156.250243 C163.160371,159.557736 155.470519,162.88009 147.055289,162.287798 C138.206109,161.665786 129.720682,163.47875 123.145486,167.391273 C118.793221,169.9791 109.02296,173 95.804498,173 C82.5860356,173 72.8157752,169.9791 68.4656376,167.391273 C61.8904416,163.480873 53.3986325,161.670031 44.5558343,162.287798 C36.1384774,162.882213 28.4507523,159.555613 24.0623249,156.250243 C20.0270138,153.210237 19.0506259,149.962185 19.884491,142.353677 C19.8866182,142.338816 19.8887454,142.317587 19.8908726,142.300604 C19.8908726,142.296358 19.8908726,142.294235 19.8929998,142.289989 C20.1099749,140.307192 20.7162288,134.936231 21.7649417,126.650514 C22.0053161,124.759002 20.6630486,123.033076 18.7677075,122.79531 C16.8744935,122.557545 15.1429472,123.894978 14.9047001,125.78649 C14.3452447,130.208511 13.9112946,133.800474 13.5943408,136.507184 C13.019995,136.19087 12.464794,135.883048 11.9861725,135.613439 C9.39523474,134.150754 7,131.78371 7,124.427828 C7,116.931834 20.3333316,58.9615411 28.3167383,40.8403846 C35.2961035,24.999233 42.8455601,18.1464808 53.5007384,18 C53.6177348,18.0127375 53.7347312,18.0212291 53.8496003,18.0212291 C53.9453246,18.0212291 54.0410489,18.0106145 54.1367732,18.0021229 C55.3024825,18.0148604 56.4043756,18.1040226 57.4424524,18.2483804 C53.2603641,19.3246956 49.3143956,21.311739 45.736434,24.2137565 C29.7674933,37.1719968 22.7051671,72.3401175 20.409911,86.8565735 C19.637735,91.7477572 18.8549229,96.9276567 18.0870013,102.254037 C17.8147189,104.141304 19.1272054,105.890581 21.0161649,106.160191 C21.1842143,106.183543 21.3501364,106.19628 21.5118041,106.19628 C23.2029334,106.19628 24.6813421,104.956501 24.9302253,103.236944 C25.6938925,97.9402846 26.4703229,92.7922288 27.2382445,87.9328887 C31.7585588,59.3309274 40.3035481,37.5137852 50.0972077,29.5677345 C57.3509826,23.683029 66.3533213,22.627943 75.8534264,26.3982305 C69.5590218,32.0366784 64.0389204,41.8063085 62.3350278,58.6006465 C61.4735091,67.1050224 60.6141176,76.4521934 59.7823798,86.3831646 C59.6228393,88.2831688 61.0374318,89.9496528 62.9391545,90.108871 C63.0370061,90.1173627 63.1348576,90.1216085 63.2305819,90.1216085 C65.0089267,90.1216085 66.5213706,88.7587005 66.6724023,86.9584731 C67.4998857,77.0678372 68.3550228,67.7610015 69.2144143,59.2948379 C72.1669772,30.1706408 87.1403852,25.820799 95.804498,25.820799 C104.468611,25.820799 119.442019,30.1685179 122.396709,59.292715 C126.034232,95.1656417 128.355015,133.806843 128.378414,134.193212 C128.486902,136.025283 130.009982,137.439141 131.826616,137.439141 C131.896814,137.439141 131.964885,137.437018 132.035083,137.432772 C133.94106,137.320258 135.393942,135.685618 135.2812,133.783491 C135.257801,133.394998 132.930637,94.6179311 129.276095,58.5985236 C127.572203,41.8041856 122.052101,32.0345555 115.757697,26.3961075 C125.259929,22.6258201 134.260141,23.6809061 141.513916,29.5656116 C151.305448,37.5095394 159.850437,59.3288045 164.372879,87.9307658 C167.952968,110.58858 170.748117,133.437456 171.724505,142.353677 C172.560497,149.962185 171.584109,153.208114 167.548798,156.250243 Z M179.055455,136.110112 C178.581032,136.378558 178.0307,136.685052 177.461392,137 C176.183612,126.088831 173.725045,106.754375 170.705605,87.565768 C168.430481,73.1098433 161.430102,38.0934886 145.601231,25.1932826 C142.056762,22.3037886 138.143297,20.3253202 134,19.2536498 C135.113313,19.0972324 136.2941,19 137.555012,19 C137.557121,19 137.559229,19 137.563446,19 C137.565555,19 137.567663,19 137.57188,19 C148.310716,19.0042275 155.878295,25.8083833 162.87024,41.7481594 C170.783621,59.7890013 184,117.51124 184,124.974886 C183.997891,132.29691 181.623666,134.653739 179.055455,136.110112 Z" id="Shape-Copy-3" fill="#605FAD"></path>
            </g>
        </g>
    </g>
</svg>